<svg width="168" height="168" viewBox="0 0 168 168" fill="none" xmlns="http://www.w3.org/2000/svg">
<path fill-rule="evenodd" clip-rule="evenodd" d="M71.7565 0C71.7564 11.8561 66.0174 22.3917 57.1298 29.0552L57.1477 29.0663C56.1336 29.8205 55.0829 30.5176 54.0033 31.1605C52.4627 32.0876 50.8484 32.9074 49.1704 33.608V33.5825C44.9386 35.3322 40.3988 36.3024 35.7963 36.4242C38.0964 38.7813 40.2084 41.2797 42.1188 43.8996C47.515 43.0272 52.7333 41.1937 57.4949 38.4775C70.9077 30.7554 79.9202 16.4163 79.9203 0H88.0853C88.0852 14.7142 81.9519 28.016 72.07 37.5594L72.1025 37.5782C69.0824 40.4882 65.7522 42.9967 62.1997 45.0856C58.1719 47.4738 53.7989 49.3548 49.1704 50.6329V50.5897C48.3734 50.8089 47.5718 51.0117 46.7652 51.1944C48.0941 53.6044 49.2725 56.0895 50.2972 58.6276C55.7443 57.2322 60.9968 55.1043 65.8901 52.2885C84.0559 41.7525 96.249 22.2819 96.2491 0H104.411C104.411 10.1951 109.856 19.1397 118.032 24.1569L118.832 24.6298C127.449 29.4836 138.376 29.8216 147.59 24.5778L151.672 31.547C141.256 37.4754 129.13 37.8446 118.832 33.588V33.608C117.665 33.1204 116.529 32.5742 115.427 31.9756C113.84 31.1231 112.311 30.1533 110.854 29.0696L110.876 29.0563C107.223 26.3184 104.1 22.9288 101.692 19.0604C100.771 22.2025 99.6321 25.254 98.2858 28.1947C101.871 32.5104 106.265 36.1485 111.236 38.8894C124.648 46.2144 141.51 46.6247 155.755 38.5173L159.836 45.4877C146.909 52.8449 132.157 54.2604 118.832 50.5952V50.6329C114.747 49.5044 110.861 47.9064 107.235 45.9052C107.164 45.8662 107.092 45.8271 107.021 45.7878C106.95 45.7482 106.88 45.7081 106.809 45.6682C102.877 43.4696 99.2024 40.7656 95.8986 37.5815L95.9345 37.5605C95.3435 36.9897 94.7647 36.4068 94.2011 35.8096C92.7484 38.1491 91.1541 40.398 89.4367 42.5418C93.3756 46.4839 97.8578 49.896 102.763 52.6618C121.108 62.924 144.329 63.6072 163.919 52.458L168 59.425C158.755 64.6871 153.58 74.2371 153.572 84.0526C153.616 93.8363 158.783 103.334 167.997 108.578L163.914 115.549C153.498 109.62 147.111 99.4523 145.701 88.5323L145.685 88.5422C145.529 87.3015 145.44 86.0577 145.415 84.8167C145.371 83.0364 145.459 81.2466 145.682 79.4622L145.705 79.4744C146.284 74.9863 147.701 70.6252 149.895 66.6345C146.675 67.4197 143.424 67.9736 140.168 68.2946C138.175 73.4955 137.175 79.0459 137.246 84.6418C137.497 99.7741 145.57 114.401 159.833 122.519L155.75 129.489C142.823 122.132 134.202 110.244 130.759 97.0353L130.729 97.0541C129.691 93.0535 129.151 88.9897 129.085 84.9452C128.992 80.2804 129.527 75.5733 130.726 70.9503L130.764 70.9713C130.97 70.1807 131.193 69.3941 131.436 68.6136C128.655 68.5431 125.882 68.3067 123.14 67.9125C121.637 73.2788 120.88 78.8466 120.912 84.4513C121.104 105.208 132.111 125.327 151.668 136.459L147.588 143.427C138.342 138.165 127.367 138.523 118.74 143.423L118.739 143.422C110.167 148.352 104.407 157.513 104.407 168H96.2423C96.2424 156.144 101.98 145.607 110.868 138.944L110.851 138.934C111.865 138.18 112.915 137.481 113.994 136.838C115.535 135.911 117.15 135.093 118.828 134.392V134.416C123.06 132.667 127.6 131.698 132.203 131.576C129.902 129.219 127.79 126.72 125.88 124.1C120.3 125.003 114.91 126.931 110.019 129.802C96.8732 137.588 88.0786 151.782 88.0785 168H79.9136C79.9137 153.286 86.0459 139.983 95.9278 130.44L95.8963 130.422C98.9164 127.512 102.246 125.002 105.798 122.913C109.826 120.525 114.2 118.645 118.828 117.367V117.409C119.625 117.19 120.427 116.988 121.234 116.806C119.905 114.396 118.726 111.91 117.702 109.372C112.254 110.768 107.001 112.895 102.108 115.71C83.9421 126.246 71.7499 145.718 71.7498 168H63.5882C63.5881 157.476 57.7857 148.285 49.1671 143.37V143.368C40.55 138.514 29.6224 138.177 20.4089 143.421L16.3265 136.452C26.7426 130.524 38.869 130.153 49.1671 134.41V134.392C50.3161 134.872 51.4353 135.408 52.5216 135.996C54.1266 136.855 55.6726 137.834 57.1444 138.929L57.1208 138.941C60.7748 141.68 63.898 145.07 66.3069 148.94C67.2274 145.797 68.3668 142.746 69.7131 139.805C66.1132 135.472 61.6981 131.82 56.7006 129.075C43.2994 121.783 26.4668 121.387 12.244 129.482L8.16268 122.511C21.0894 115.154 35.8421 113.737 49.1671 117.403V117.367C53.2077 118.483 57.0532 120.059 60.6449 122.029C64.7826 124.28 68.6442 127.087 72.1003 130.417L72.0621 130.438C72.6537 131.01 73.2336 131.593 73.7978 132.19C75.2505 129.851 76.8448 127.602 78.5621 125.458C74.6109 121.504 70.1132 118.082 65.1902 115.312C46.8522 105.074 23.653 104.401 4.08022 115.541L0 108.573C9.24505 103.311 14.4187 93.7615 14.4268 83.9463C14.3816 74.1633 9.21523 64.6653 0.00224682 59.4217L4.08471 52.4513C14.5 58.3794 20.886 68.5464 22.2963 79.4655L22.3142 79.4567C22.4696 80.6978 22.5575 81.942 22.5827 83.1833C22.6272 84.9636 22.5403 86.7534 22.3165 88.5378L22.2929 88.5245C21.7142 93.0125 20.2981 97.3738 18.1037 101.364C21.3243 100.579 24.5747 100.025 27.8313 99.7043C29.8368 94.4684 30.8367 88.8783 30.751 83.2442C30.461 68.1525 22.3927 53.5781 8.16605 45.481L12.2485 38.5107C25.1748 45.8677 33.7946 57.7546 37.2376 70.9625L37.2702 70.9447C38.3083 74.9461 38.8465 79.0107 38.9126 83.0559C39.006 87.7204 38.4722 92.4271 37.2724 97.0497L37.2342 97.0276C37.0282 97.8181 36.8054 98.6049 36.5624 99.3853C39.3441 99.4558 42.1167 99.6921 44.8588 100.086C46.368 94.6971 47.1247 89.1046 47.0854 83.4756C46.8682 62.7444 35.8653 42.6596 16.331 31.5415L20.4112 24.5733C29.3678 29.671 39.9489 29.4947 48.4447 25.023L49.2592 24.5767C57.8314 19.6468 63.5915 10.4876 63.5916 0H71.7565ZM83.9983 48.624C79.8756 52.6761 75.2993 56.1485 70.4006 59.0097C70.3396 59.0456 70.2786 59.0814 70.2175 59.1171C70.074 59.2004 69.9301 59.283 69.7861 59.3652C64.559 62.3697 58.9 64.724 52.9215 66.3123C54.4111 71.825 55.1726 77.4341 55.2447 83.0138C55.2463 83.1113 55.248 83.2087 55.2492 83.3062C55.2504 83.452 55.2511 83.5978 55.2514 83.7436C55.2839 89.7322 54.5231 95.7656 52.9226 101.688C58.5187 103.175 63.8343 105.334 68.7784 108.068C68.8818 108.125 68.9853 108.181 69.0884 108.238C69.1977 108.299 69.3064 108.362 69.4154 108.423C74.687 111.388 79.6023 115.051 84.0006 119.375C88.123 115.323 92.6988 111.85 97.5972 108.989C97.6581 108.953 97.7192 108.917 97.7803 108.882C97.94 108.789 98.1007 108.698 98.2611 108.607C103.474 105.616 109.116 103.27 115.076 101.687C113.572 96.1185 112.81 90.4519 112.751 84.8167C112.75 84.775 112.749 84.7333 112.749 84.6916C112.747 84.4786 112.747 84.2655 112.747 84.0526C112.733 78.1307 113.493 72.1664 115.075 66.3111C109.438 64.8131 104.084 62.6333 99.1093 59.8702C99.0684 59.8477 99.0276 59.8252 98.9868 59.8026C98.7983 59.6974 98.6103 59.5917 98.4229 59.4848C93.212 56.5357 88.3518 52.9035 83.9983 48.624Z" fill="#57BD86"></path>
</svg>